#!OML:ASF H:\Dans Jumps\Project 1\Capture day 1\Session 1\subject.ASF
:FULLY-SPECIFIED
:DEGREES
509
root 0.683728 17.6916 11.8498 8.74967 -2.64557 -1.45899
lowerback -4.20174 -0.237104 -0.261876
upperback 0.86658 -0.353002 1.59074
thorax 3.26031 -0.196554 1.76062
lowerneck -12.9304 0.0856469 -1.73723
upperneck 17.0373 0.245135 1.21267
head 7.35882 0.115925 0.707313
rclavicle -8.64713e-015 -8.15017e-015
rhumerus -26.9273 -12.5425 -80.5854
rradius 24.7637
rwrist 40.2867
rhand -16.1685 -26.0458
rfingers 7.12502
rthumb 10.0376 -55.7865
lclavicle -8.64713e-015 -8.15017e-015
lhumerus -24.7381 -3.33544 91.8317
lradius 22.0391
lwrist 6.96617
lhand -24.8018 -7.20069
lfingers 7.12502
lthumb 1.70304 22.7723
rfemur -13.8576 -3.69808 21.1769
rtibia 21.1329
rfoot -14.8712 -0.756747
rtoes 13.6759
lfemur -13.0539 9.39987 -19.4337
ltibia 17.7192
lfoot -10.7519 6.56267
ltoes -4.12199
510
root 0.685063 17.6912 11.8478 8.73335 -2.65633 -1.47056
lowerback -4.20243 -0.235487 -0.245017
upperback 0.876355 -0.35205 1.59587
thorax 3.27068 -0.195904 1.75652
lowerneck -12.9241 0.0822939 -1.74526
upperneck 16.9673 0.24587 1.19467
head 7.33488 0.114317 0.7025
rclavicle -3.32964e-015 -3.18055e-015
rhumerus -26.9022 -12.5894 -80.6038
rradius 24.7574
rwrist 40.1964
rhand -16.1985 -26.028
rfingers 7.12502
rthumb 10.0086 -55.77
lclavicle -3.32964e-015 -3.18055e-015
lhumerus -24.8216 -3.31888 91.8862
lradius 21.7699
lwrist 6.74065
lhand -24.7973 -7.12387
lfingers 7.12502
lthumb 1.70736 22.849
rfemur -13.8416 -3.67773 21.1827
rtibia 21.1221
rfoot -14.8736 -0.788515
rtoes 13.5665
lfemur -13.0523 9.38815 -19.4238
ltibia 17.7442
lfoot -10.7576 6.59326
ltoes -4.10858
511
root 0.686283 17.6908 11.8459 8.7153 -2.66199 -1.48101
lowerback -4.20154 -0.235719 -0.231242
upperback 0.885248 -0.353395 1.60154
thorax 3.27936 -0.196449 1.75454
lowerneck -12.9068 0.0748597 -1.76259
upperneck 16.8966 0.240821 1.18673
head 7.30889 0.110263 0.701904
rclavicle -3.926e-015 7.95139e-016
rhumerus -26.8795 -12.6433 -80.617
rradius 24.7465
rwrist 40.1045
rhand -16.2276 -26.0036
rfingers 7.12502
rthumb 9.98057 -55.747
lclavicle -3.926e-015 7.95139e-016
lhumerus -24.9023 -3.30796 91.9332
lradius 21.4968
lwrist 6.51588
lhand -24.8036 -7.08177
lfingers 7.12502
lthumb 1.70121 22.8912
rfemur -13.8225 -3.66326 21.1882
rtibia 21.1106
rfoot -14.8764 -0.821494
rtoes 13.4588
lfemur -13.0488 9.37727 -19.4144
ltibia 17.7693
lfoot -10.7667 6.61813
ltoes -4.08428
512
root 0.687408 17.6905 11.8441 8.69572 -2.66431 -1.48902
lowerback -4.19975 -0.237238 -0.22187
upperback 0.893917 -0.356216 1.60729
thorax 3.28738 -0.19781 1.75502
lowerneck -12.8813 0.064828 -1.7884
upperneck 16.8269 0.231912 1.18877
head 7.28175 0.104726 0.705563
rclavicle 2.48481e-016 -1.59028e-014
rhumerus -26.8583 -12.6995 -80.6274
rradius 24.7323
rwrist 40.0022
rhand -16.2595 -25.9711
rfingers 7.12502
rthumb 9.94982 -55.716
lclavicle 2.48481e-016 -1.59028e-014
lhumerus -24.9795 -3.2909 91.9693
lradius 21.2214
lwrist 6.2759
lhand -24.8172 -7.07324
lfingers 7.12502
lthumb 1.68815 22.8998
rfemur -13.8021 -3.6519 21.1916
rtibia 21.0999
rfoot -14.8795 -0.855731
rtoes 13.3548
lfemur -13.044 9.36819 -19.4074
ltibia 17.7931
lfoot -10.7765 6.63756
ltoes -4.05677
